<?xml version="1.0" encoding="UTF-8"?>
<svg width="920px" height="330px" viewBox="0 0 920 330" version="1.1" xmlns="http://www.w3.org/2000/svg" xmlns:xlink="http://www.w3.org/1999/xlink">
    <!-- Generator: Sketch 50.2 (55047) - http://www.bohemiancoding.com/sketch -->
    <title>entwurf-marco</title>
    <desc>Created with Sketch.</desc>
    <defs>
        <rect id="path-1" x="0" y="0" width="920" height="330" rx="20"></rect>
    </defs>
    <g id="entwurf-marco" stroke="none" stroke-width="1" fill="none" fill-rule="evenodd">
        <g id="entwurf-marco-copy">
            <mask id="mask-2" fill="white">
                <use xlink:href="#path-1"></use>
            </mask>
            <use id="Mask" fill="#6C6C6C" xlink:href="#path-1"></use>
            <g id="Group" mask="url(#mask-2)">
                <g transform="translate(34.000000, -268.000000)">
                    <rect id="Rectangle" fill="#6C6C6C" x="0" y="0" width="853" height="480"></rect>
                    <g id="Group-2" stroke-width="1" fill="none" transform="translate(54.000000, 325.000000)">
                        <path d="M406.080192,51.1062761 C403.380191,51.1062761 395.280191,53.8062762 395.280191,58.3062764 C395.280191,62.8062766 397.080191,64.6062766 398.880191,64.6062766 C400.680191,64.6062766 405.369826,68.8074414 410.968652,67.0957085 C416.567477,65.3839757 422.280192,74.506277 422.280192,80.8062773 C422.280192,87.1062775 437.224879,112.71343 437.224879,114.51343 C437.224879,115.71343 438.543317,115.877713 441.180193,115.006279 C438.780193,105.506278 437.580193,98.006278 437.580193,92.5062778 C437.580193,84.2562774 439.30773,71.526121 446.040008,69.467857 C452.772286,67.4095931 453.780193,68.2062768 459.180194,68.2062768 C464.580194,68.2062768 471.780194,52.9062762 457.380194,52.9062762 C442.980193,52.9062762 446.40198,56.5062763 438.480193,56.5062763 C430.558405,56.5062763 424.980192,51.1062761 406.080192,51.1062761 Z" id="Path-7" fill="#A4A4A4" transform="translate(430.558405, 83.331231) scale(-1, 1) rotate(17.000000) translate(-430.558405, -83.331231) "></path>
                        <path d="M619.3802,36.7062755 C616.6802,36.7062755 608.5802,39.4062756 608.5802,43.9062758 C608.5802,48.406276 610.3802,50.2062761 612.1802,50.2062761 C613.9802,50.2062761 618.669834,54.4074408 624.26866,52.695708 C629.867486,50.9839751 635.580201,60.1062765 635.580201,66.4062767 C635.580201,72.706277 650.524887,98.3134296 650.524887,100.11343 C650.524887,101.31343 651.843325,101.477713 654.480201,100.606278 L656.216896,98.3664977 C653.810791,70.8729128 654.851831,56.4400324 659.340016,55.0678565 C666.072294,53.0095925 667.080202,53.8062762 672.480202,53.8062762 C677.880202,53.8062762 685.080203,38.5062756 670.680202,38.5062756 C656.280202,38.5062756 659.701989,42.1062757 651.780201,42.1062757 C643.858414,42.1062757 638.280201,36.7062755 619.3802,36.7062755 Z" id="Path-7-Copy" fill="#A4A4A4" transform="translate(643.858414, 68.931230) rotate(8.000000) translate(-643.858414, -68.931230) "></path>
                        <path d="M39.8281025,98.2194983 C38.4744957,105.748936 37.4170062,112.43227 36.6556024,118.269699 C35.8941985,124.107128 35.5135023,130.071369 35.5135023,136.1626 C35.5135023,142.25383 36.1056964,146.610687 37.2901024,149.2333 C30.7758696,147.541292 26.2921142,144.939868 23.8387019,141.42895 C21.3852895,137.918032 20.1586017,132.947832 20.1586017,126.518199 C20.1586017,120.849971 21.0468929,113.087998 22.8235018,103.232048 C24.6001108,93.3760988 25.7421994,86.7139151 26.249802,83.2452977 C21.8505798,84.0067015 17.1553266,85.4871868 12.1639014,87.6867978 C11.9947005,85.8255885 11.9101014,84.4297024 11.9101014,83.4990977 C11.9101014,79.0152751 13.2636879,75.9485556 15.9709015,74.2988473 C18.6781152,72.649139 22.5696764,71.7819976 27.645702,71.6973972 C28.237905,65.3523652 28.534002,60.7840107 28.534002,57.9921967 C28.534002,55.2003826 28.5128523,52.8739058 28.470552,51.0126964 C28.4282518,49.151487 28.407102,47.7556009 28.407102,46.8249962 C33.9907302,47.4171992 38.0514897,49.0880326 40.5895025,51.8375464 C43.1275153,54.5870603 44.3965027,58.4997713 44.3965027,63.5757969 C44.3965027,65.6062071 44.1850048,68.4402789 43.7620027,72.0780972 C50.8684385,71.9088964 56.0712866,70.5130103 59.3707033,67.8903971 C59.5399041,69.5824056 59.6245033,70.8513929 59.6245033,71.6973972 C59.6245033,75.7582177 58.9054104,78.5711397 57.4672032,80.1362475 C56.0289959,81.7013554 53.61792,82.4838976 50.2339029,82.4838976 C46.8498859,82.4838976 44.2696116,82.4415981 42.4930026,82.3569976 C42.0700005,85.402613 41.1817093,90.6900603 39.8281025,98.2194983 Z" id="Path" fill="#FFFFFF"></path>
                        <path d="M91.8472046,102.787898 C94.6390186,93.2280503 98.9958752,85.1699805 104.917905,78.6134475 C110.839935,72.0569144 116.36003,68.7786971 121.478356,68.7786971 C126.596682,68.7786971 130.234445,70.3226317 132.391756,73.4105473 C134.549067,76.4984628 135.627706,80.6861211 135.627706,85.9736478 C135.627706,91.2611744 134.802865,98.6847505 133.153156,108.244599 C131.503448,117.804447 130.678606,124.762728 130.678606,129.119649 C130.678606,133.476571 131.228501,136.64904 132.328306,138.63715 C133.428112,140.62526 135.289293,142.338393 137.911906,143.7766 C136.812101,143.8612 135.247016,143.9035 133.216606,143.9035 C126.11017,143.9035 121.055371,142.803711 118.052056,140.6041 C115.04874,138.404489 113.547105,134.555227 113.547105,129.056199 C113.547105,125.925984 114.393097,119.813695 116.085106,110.719149 C117.777114,101.624603 118.623106,94.8355205 118.623106,90.3516979 C118.623106,84.7680698 116.931122,81.9762976 113.547105,81.9762976 C111.516695,81.9762976 109.274818,83.1183862 106.821405,85.4025978 C104.367993,87.6868093 102.020366,90.7958283 99.7784549,94.7297481 C97.5365436,98.6636679 95.6542123,103.718468 94.1314047,109.894299 C92.608597,116.07013 91.8472046,122.224719 91.8472046,128.358249 C91.8472046,134.49178 92.101002,139.038985 92.6086046,142 C89.901391,142.169201 88.1248086,142.2538 87.2788044,142.2538 C82.4565801,142.2538 78.9880146,141.428958 76.873004,139.77925 C74.7579933,138.129542 73.7005038,135.485818 73.7005038,131.848 C73.7005038,128.210181 74.4195967,121.27305 75.8578039,111.036399 C80.426227,79.5650402 82.7104042,55.6657782 82.7104042,39.3378959 C82.7104042,31.9776588 82.2028093,27.0286081 81.1876041,24.4905953 C87.5326361,26.1826039 91.8683429,28.7417284 94.1948547,32.1680456 C96.5213664,35.5943629 97.6846048,40.4376647 97.6846048,46.6980962 C97.6846048,50.9281175 96.859763,59.8110291 95.2100547,73.3470973 C93.5603464,86.8831655 92.4394075,96.6966677 91.8472046,102.787898 Z" id="Path" fill="#FFFFFF"></path>
                        <path d="M190.184808,110.782599 C186.123988,110.782599 182.147828,110.317303 178.256208,109.386699 C178.171608,110.232703 178.129308,111.54399 178.129308,113.320599 C178.129308,120.342434 179.440595,125.629882 182.063208,129.183099 C184.685821,132.736317 187.81599,134.5129 191.453809,134.5129 C195.091627,134.5129 198.560192,133.413111 201.859609,131.2135 C205.159026,129.013888 208.035397,125.968319 210.488809,122.076699 C213.534425,122.753503 215.057209,124.318587 215.057209,126.771999 C207.612372,138.193057 198.010368,143.9035 186.250908,143.9035 C179.144473,143.9035 172.926434,141.175177 167.596608,135.71845 C162.266781,130.261722 159.601907,122.668948 159.601907,112.939899 C159.601907,105.664262 160.997793,98.7482811 163.789607,92.191748 C166.581421,85.635215 171.022877,80.0939702 177.114108,75.5678474 C183.205339,71.0417245 189.952121,68.7786971 197.354659,68.7786971 C204.757196,68.7786971 210.192692,70.4706802 213.661309,73.8546973 C217.129927,77.2387143 218.86421,81.6801701 218.86421,87.1791978 C218.86421,95.1316379 216.093587,101.053579 210.552259,104.945199 C205.010931,108.836818 198.221849,110.782599 190.184808,110.782599 Z M195.514609,76.6464974 C191.199987,76.6464974 187.562223,79.3113709 184.601208,84.6411977 C181.640193,89.9710246 179.694413,96.4428601 178.763808,104.056898 L180.667308,104.056898 C188.027545,104.056898 193.463041,102.153417 196.973959,98.3463983 C200.484876,94.5393791 202.240309,89.9710246 202.240309,84.6411977 C202.240309,82.4415866 201.669265,80.5592554 200.527159,78.9941475 C199.385053,77.4290396 197.71422,76.6464974 195.514609,76.6464974 Z" id="Combined-Shape" fill="#FFFFFF"></path>
                        <path d="M302.237513,76.2657974 C299.868701,76.2657974 297.753722,77.0483396 295.892513,78.6134475 C294.031303,80.1785554 293.100713,82.3992832 293.100713,85.2756977 C293.100713,88.1521122 294.094753,90.8592853 296.082863,93.3972981 C298.070973,95.9353109 300.503198,98.1560387 303.379613,100.059548 C306.256027,101.963058 309.153549,103.908839 312.072263,105.896949 C314.990978,107.885059 317.550103,110.338434 319.749714,113.257149 C321.949325,116.175864 323.176012,119.411781 323.429814,122.964999 C323.429814,129.05623 320.80724,134.174479 315.562013,138.3199 C310.316787,142.465321 303.802652,144.538 296.019413,144.538 C288.236173,144.538 282.123884,142.972916 277.682362,139.8427 C273.24084,136.712484 271.020112,133.11702 271.020112,129.056199 C271.020112,124.995379 272.267949,121.717162 274.763662,119.221449 C277.259374,116.725737 280.368393,115.477899 284.090812,115.477899 C286.036622,115.477899 287.855504,115.816296 289.547512,116.493099 C286.840299,119.369513 285.486712,122.415083 285.486712,125.629899 C285.486712,128.844716 286.375003,131.42499 288.151612,133.3708 C289.928221,135.316609 292.339297,136.2895 295.384913,136.2895 C298.430528,136.2895 300.989653,135.506958 303.062363,133.94185 C305.135073,132.376742 306.171413,130.346362 306.171413,127.850649 C306.171413,125.354937 305.45232,123.134209 304.014113,121.188399 C302.575906,119.242589 300.778174,117.529456 298.620863,116.048949 C296.463552,114.568442 294.115925,112.897608 291.577913,111.036399 C289.0399,109.175189 286.692273,107.292858 284.534962,105.389349 C282.377651,103.485839 280.579919,101.074763 279.141712,98.1560483 C277.703505,95.2373335 276.984412,92.0437154 276.984412,88.5750979 C276.984412,82.5684676 279.458937,77.6405667 284.408062,73.7912473 C289.357187,69.9419279 295.532926,68.0172971 302.935463,68.0172971 C310.338,68.0172971 315.752346,69.4554827 319.178664,72.3318972 C322.604981,75.2083117 324.318114,78.5711282 324.318114,82.4204476 C324.318114,86.269767 323.112576,89.5479844 320.701464,92.255198 C318.290352,94.9624117 315.181332,96.3159982 311.374313,96.3159982 C309.513104,96.3159982 307.398125,95.935302 305.029313,95.1738981 C306.890522,93.56649 308.328708,91.7264584 309.343913,89.6537479 C310.359118,87.5810375 310.866713,85.5295079 310.866713,83.4990977 C310.866713,81.4686874 310.020722,79.7555545 308.328713,78.3596475 C306.636705,76.9637404 304.606325,76.2657974 302.237513,76.2657974 Z" id="Path" fill="#FFFFFF"></path>
                        <path d="M356.296915,102.787898 C359.088729,93.2280503 363.445586,85.1699805 369.367616,78.6134475 C375.289645,72.0569144 380.80974,68.7786971 385.928066,68.7786971 C391.046392,68.7786971 394.684156,70.3226317 396.841467,73.4105473 C398.998778,76.4984628 400.077417,80.6861211 400.077417,85.9736478 C400.077417,91.2611744 399.252575,98.6847505 397.602867,108.244599 C395.953158,117.804447 395.128317,124.762728 395.128317,129.119649 C395.128317,133.476571 395.678211,136.64904 396.778017,138.63715 C397.877822,140.62526 399.739004,142.338393 402.361617,143.7766 C401.261811,143.8612 399.696727,143.9035 397.666317,143.9035 C390.559881,143.9035 385.505081,142.803711 382.501766,140.6041 C379.498451,138.404489 377.996816,134.555227 377.996816,129.056199 C377.996816,125.925984 378.842808,119.813695 380.534816,110.719149 C382.226825,101.624603 383.072816,94.8355205 383.072816,90.3516979 C383.072816,84.7680698 381.380833,81.9762976 377.996816,81.9762976 C375.966406,81.9762976 373.724528,83.1183862 371.271116,85.4025978 C368.817703,87.6868093 366.470077,90.7958283 364.228165,94.7297481 C361.986254,98.6636679 360.103923,103.718468 358.581115,109.894299 C357.058307,116.07013 356.296915,122.224719 356.296915,128.358249 C356.296915,134.49178 356.550713,139.038985 357.058315,142 C354.351101,142.169201 352.574519,142.2538 351.728515,142.2538 C346.906291,142.2538 343.437725,141.428958 341.322714,139.77925 C339.207704,138.129542 338.150214,135.485818 338.150214,131.848 C338.150214,128.210181 338.869307,121.27305 340.307514,111.036399 C344.875937,79.5650402 347.160115,55.6657782 347.160115,39.3378959 C347.160115,31.9776588 346.65252,27.0286081 345.637315,24.4905953 C351.982347,26.1826039 356.318053,28.7417284 358.644565,32.1680456 C360.971077,35.5943629 362.134315,40.4376647 362.134315,46.6980962 C362.134315,50.9281175 361.309474,59.8110291 359.659765,73.3470973 C358.010057,86.8831655 356.889118,96.6966677 356.296915,102.787898 Z" id="Path" fill="#FFFFFF"></path>
                        <path d="M436.243918,100.757498 C439.289534,89.7594429 442.948447,81.6590736 447.220769,76.4561474 C451.49309,71.2532212 455.469251,68.6517971 459.149369,68.6517971 C462.829488,68.6517971 465.60011,70.0265334 467.461319,72.7760472 C469.322529,75.5255611 470.25312,79.0787257 470.25312,83.4356477 C470.25312,87.7925696 468.962982,91.7898798 466.382669,95.4276981 C463.802356,99.0655165 460.270342,100.884398 455.786519,100.884398 C454.602113,100.884398 453.206227,100.546002 451.598819,99.8691983 C454.221432,96.5697817 455.532719,92.5936213 455.532719,87.9405979 C455.532719,85.2333842 454.43293,83.8797977 452.233319,83.8797977 C450.625911,83.8797977 448.891628,85.0007365 447.030419,87.2426478 C445.169209,89.4845591 443.392627,92.5724284 441.700618,96.5063482 C440.00861,100.440268 438.591574,105.473918 437.449468,111.607449 C436.307363,117.74098 435.736318,124.276265 435.736318,131.2135 C435.736318,132.059504 435.947816,135.654968 436.370818,142 C433.663605,142.169201 431.929322,142.2538 431.167918,142.2538 C426.345694,142.2538 422.877128,141.407808 420.762118,139.7158 C418.647107,138.023791 417.589618,135.232019 417.589618,131.3404 C417.589618,129.648391 418.477909,123.134256 420.254518,111.797799 C422.031127,100.461342 422.919418,91.4303816 422.919418,84.7046477 C422.919418,77.9789138 422.200325,71.7820256 420.762118,66.113797 C426.937949,68.0596068 431.252506,70.8302292 433.705918,74.4257473 C436.159331,78.0212654 437.386018,82.2089237 437.386018,86.9888478 C437.386018,91.7687719 437.005322,96.3582762 436.243918,100.757498 Z" id="Path" fill="#A4A4A4"></path>
                        <path d="M521.140022,69.1593971 C526.216047,69.1593971 530.530604,71.6550722 534.083822,76.6464974 C537.63704,81.6379226 539.413622,88.321256 539.413622,96.6966982 C539.413622,106.087346 537.510141,114.71646 533.703122,122.584299 C529.473101,131.467344 523.466561,137.600783 515.683321,140.9848 C511.284099,142.93061 506.461947,143.9035 501.216721,143.9035 C493.856484,143.9035 487.448098,141.048279 481.99137,135.33775 C476.534643,129.627221 473.80632,121.421103 473.80632,110.719149 C473.80632,100.017195 476.428894,90.5843888 481.67412,82.4204476 C486.919346,74.2565065 493.856477,69.1171077 502.485721,67.002097 C503.416326,67.002097 504.283467,67.2770443 505.087171,67.8269471 C505.890875,68.3768498 506.292721,68.9478941 506.292721,69.5400971 C497.748078,75.462127 492.629829,83.7105448 490.93782,94.2855981 C492.714429,89.5479742 494.892858,85.4449151 497.473171,81.9762976 C500.053484,78.5076801 502.739507,75.8851063 505.531321,74.1084973 C510.861148,70.8090807 516.063996,69.1593971 521.140022,69.1593971 Z M513.272221,78.4230975 C507.773194,78.4230975 502.866442,82.1243106 498.551821,89.5268479 C494.237199,96.9293852 492.07992,104.310662 492.07992,111.670899 C492.07992,127.068176 496.056081,134.7667 504.008521,134.7667 C509.67675,134.7667 514.287404,131.065487 517.840621,123.662949 C521.393839,116.260412 523.170422,107.948545 523.170422,98.7270983 C523.170422,85.1910301 519.871055,78.4230975 513.272221,78.4230975 Z" id="Path" fill="#A4A4A4"></path>
                        <path d="M599.437325,69.1593971 C604.51335,69.1593971 608.827907,71.6550722 612.381125,76.6464974 C615.934343,81.6379226 617.710925,88.321256 617.710925,96.6966982 C617.710925,106.087346 615.807444,114.71646 612.000425,122.584299 C607.770404,131.467344 601.763864,137.600783 593.980625,140.9848 C589.581402,142.93061 584.75925,143.9035 579.514024,143.9035 C572.153787,143.9035 565.745401,141.048279 560.288673,135.33775 C554.831946,129.627221 552.103623,121.421103 552.103623,110.719149 C552.103623,100.017195 554.726197,90.5843888 559.971423,82.4204476 C565.21665,74.2565065 572.153781,69.1171077 580.783024,67.002097 C581.713629,67.002097 582.58077,67.2770443 583.384474,67.8269471 C584.188178,68.3768498 584.590024,68.9478941 584.590024,69.5400971 C576.045381,75.462127 570.927132,83.7105448 569.235124,94.2855981 C571.011732,89.5479742 573.190161,85.4449151 575.770474,81.9762976 C578.350787,78.5076801 581.03681,75.8851063 583.828624,74.1084973 C589.158451,70.8090807 594.361299,69.1593971 599.437325,69.1593971 Z M591.569524,78.4230975 C586.070497,78.4230975 581.163746,82.1243106 576.849124,89.5268479 C572.534502,96.9293852 570.377224,104.310662 570.377224,111.670899 C570.377224,127.068176 574.353384,134.7667 582.305824,134.7667 C587.974053,134.7667 592.584707,131.065487 596.137925,123.662949 C599.691143,116.260412 601.467725,107.948545 601.467725,98.7270983 C601.467725,85.1910301 598.168358,78.4230975 591.569524,78.4230975 Z" id="Path" fill="#A4A4A4"></path>
                        <path d="M687.759728,128.548599 C687.759728,132.778621 688.013526,137.262376 688.521128,142 C685.813915,142.169201 684.037332,142.2538 683.191328,142.2538 C678.453704,142.2538 675.027438,141.428958 672.912428,139.77925 C670.797417,138.129542 669.739928,135.697316 669.739928,132.4825 C669.739928,129.267683 670.649368,122.647799 672.468278,112.622649 C674.287187,102.597498 675.196628,94.9835741 675.196628,89.7806479 C675.196628,84.5777217 673.504645,81.9762976 670.120628,81.9762976 C668.259418,81.9762976 666.229038,83.0972364 664.029427,85.3391477 C661.829816,87.581059 659.757137,90.6266287 657.811327,94.4759481 C655.865517,98.3252675 654.236983,103.253168 652.925677,109.259799 C651.61437,115.266429 650.958727,121.040321 650.958727,126.581649 C650.958727,132.122977 651.212524,137.262376 651.720127,142 C649.012913,142.169201 647.236331,142.2538 646.390327,142.2538 C641.652703,142.2538 638.226437,141.428958 636.111426,139.77925 C633.996416,138.129542 632.938926,135.358919 632.938926,131.4673 C632.938926,130.536695 633.806067,124.234058 635.540376,112.559199 C637.274685,100.88434 638.141826,91.6418821 638.141826,84.8315477 C638.141826,78.0212134 637.422733,71.7820256 635.984526,66.113797 C642.244958,68.0596068 646.601814,70.851379 649.055227,74.4891973 C651.508639,78.1270157 652.735327,82.610771 652.735327,87.9405979 C652.735327,90.6478115 652.43923,94.0740774 651.847027,98.2194983 C654.723441,89.7594556 658.720751,82.7377256 663.839077,77.1540974 C668.957403,71.5704693 673.906454,68.7786971 678.686378,68.7786971 C683.466302,68.7786971 686.934867,70.5552794 689.092178,74.1084973 C691.249489,77.6617152 692.328128,82.7799642 692.328128,89.4633979 C695.542945,83.2875668 699.223008,78.2962165 703.368429,74.4891973 C707.51385,70.6821781 711.320812,68.7786971 714.789429,68.7786971 C719.950055,68.7786971 723.608969,70.3226317 725.76628,73.4105473 C727.923591,76.4984628 729.00223,80.6861211 729.00223,85.9736478 C729.00223,91.2611744 728.177388,98.6847505 726.52768,108.244599 C724.877971,117.804447 724.05313,124.762728 724.05313,129.119649 C724.05313,133.476571 724.603024,136.64904 725.70283,138.63715 C726.802635,140.62526 728.663817,142.338393 731.28643,143.7766 C730.186624,143.8612 728.62154,143.9035 726.59113,143.9035 C719.484694,143.9035 714.429894,142.803711 711.426579,140.6041 C708.423264,138.404489 706.921629,134.555227 706.921629,129.056199 C706.921629,125.925984 707.767621,119.813695 709.459629,110.719149 C711.151638,101.624603 711.997629,94.8355205 711.997629,90.3516979 C711.997629,84.7680698 710.305646,81.9762976 706.921629,81.9762976 C704.383616,81.9762976 701.655293,83.8163293 698.736579,87.4964478 C695.817864,91.1765664 693.258739,96.7178112 691.059128,104.120348 C688.859517,111.522886 687.759728,119.665555 687.759728,128.548599 Z" id="Path" fill="#A4A4A4"></path>
                        <path d="M41.0970387,173.415005 C41.0970387,168.387579 40.3275464,164.728216 38.7885386,162.436804 C37.2495309,160.145393 35.1633516,158.999704 32.5299384,158.999704 C29.8965251,158.999704 27.4683493,160.042794 25.2453381,162.129004 C23.0223269,164.215215 21.3294437,166.822939 20.1666379,169.952254 C19.003832,173.08157 18.4224378,176.287788 18.4224378,179.571005 C18.4224378,183.982827 19.2346797,187.607991 20.8591879,190.446605 C22.4836961,193.28522 24.9204218,194.704505 28.1694382,194.704505 C30.8028515,194.704505 33.1284283,193.627216 35.1462385,191.472605 C37.1640486,189.317994 38.6602837,186.650421 39.6349886,183.469805 C40.6096936,180.289189 41.0970387,176.937622 41.0970387,173.415005 Z M40.3788387,192.190805 C38.9082313,193.866614 37.0699996,195.2175 34.8640885,196.243506 C32.6581773,197.269511 30.2471014,197.782506 27.6307882,197.782506 C25.014475,197.782506 22.705998,197.166912 20.7052879,195.935706 C18.7045778,194.704499 17.1228436,193.062916 15.9600377,191.010905 C13.6002258,186.838484 12.4203376,182.067632 12.4203376,176.698205 C12.4203376,171.328778 13.7370244,166.549375 16.3704377,162.359854 C19.003851,158.170333 22.4238169,155.408711 26.6304381,154.074904 C27.2118411,154.211705 27.5367378,154.485302 27.6051382,154.895704 C25.2111261,156.366311 23.2531956,158.093394 21.7312879,160.077004 C20.2093803,162.060614 19.1577407,164.745287 18.5763378,168.131104 C20.012745,164.129684 22.2528227,160.983316 25.2966381,158.691904 C28.3404534,156.400492 31.5295717,155.254804 34.8640885,155.254804 C38.1986053,155.254804 41.037177,156.68264 43.3798888,159.538354 C45.7226006,162.394068 46.8939389,166.523677 46.8939389,171.927305 C46.8939389,177.194131 45.9534483,181.964984 44.0724388,186.240005 C43.0806338,188.497217 41.8494461,190.480797 40.3788387,192.190805 Z M60.5250823,177.980705 C61.9272894,174.800089 63.6971217,172.363363 65.8346325,170.670455 C67.9721433,168.977546 70.0925222,168.131104 72.1958328,168.131104 C74.2991434,168.131104 76.0347761,168.977546 77.402783,170.670455 C78.7707899,172.363363 79.454783,174.817189 79.454783,178.032005 C79.454783,183.12783 78.1124464,187.479737 75.4277329,191.087855 C72.7430194,194.695974 69.5197015,196.500006 65.7576825,196.500006 C64.4238758,196.500006 63.0558894,196.226408 61.6536823,195.679206 C64.2186953,195.166203 66.4673229,193.858066 68.3996326,191.754755 C70.3319423,189.651445 71.7341284,187.394267 72.6062328,184.983155 C73.4783372,182.572043 73.9143828,180.400365 73.9143828,178.468055 C73.9143828,176.535745 73.5723862,175.05661 72.8883828,174.030605 C72.2043793,173.004599 71.229689,172.491605 69.9642827,172.491605 C67.6044708,172.491605 65.5011917,173.799742 63.6543824,176.416055 C61.8075731,179.032368 60.3882872,182.580583 59.3964823,187.060805 C58.4046773,191.541028 57.9087822,196.166532 57.9087822,200.937456 C57.9087822,205.70838 58.2507788,209.855088 58.9347822,213.377706 C56.8485717,213.275106 55.2069881,212.81341 54.009982,211.992606 C52.812976,211.171802 52.214482,209.649917 52.214482,207.426906 C52.214482,206.606102 52.7360268,202.271295 53.779132,194.422355 C54.8222373,186.573416 55.3437821,180.528626 55.3437821,176.287805 C55.3437821,172.046983 55.0872846,168.473119 54.5742821,165.566104 C56.8314934,166.215908 58.3875779,167.541144 59.2425822,169.541854 C60.0975866,171.542565 60.5250823,174.355487 60.5250823,177.980705 Z M99.1393266,169.567504 C97.0873163,169.567504 95.3516836,170.747393 93.9323764,173.107205 C92.5130693,175.467017 91.5640287,178.237189 91.0852263,181.417805 L92.5216264,181.417805 C94.3342355,181.417805 95.9074199,181.161307 97.2412266,180.648305 C98.5750333,180.135302 99.6010231,179.468409 100.319227,178.647605 C101.687234,177.074397 102.371227,175.296015 102.371227,173.312405 C102.371227,172.183799 102.106179,171.277508 101.576077,170.593505 C101.045974,169.909501 100.233732,169.567504 99.1393266,169.567504 Z M106.372627,190.344005 C104.799419,192.909018 103.072336,194.7045 101.191327,195.730506 C99.3103173,196.756511 97.130089,197.269506 94.6505765,197.269506 C92.171064,197.269506 90.0079355,196.175116 88.1611262,193.986305 C86.3143169,191.797494 85.3909261,188.719525 85.3909261,184.752305 C85.3909261,180.237882 86.605014,176.202323 89.0332262,172.645505 C90.2302323,170.935496 91.7948667,169.55041 93.7271764,168.490204 C95.6594862,167.429999 97.788415,166.899904 100.114027,166.899904 C105.244053,166.899904 107.809027,169.37938 107.809027,174.338405 C107.809027,177.31382 106.654788,179.647946 104.346277,181.340855 C102.037765,183.033763 99.3616419,183.880205 96.3178265,183.880205 C94.3000164,183.880205 92.4874344,183.692107 90.8800263,183.315905 C90.8458261,183.657907 90.8287263,184.188001 90.8287263,184.906205 C90.8287263,190.959636 92.6242084,193.986305 96.2152265,193.986305 C99.6010436,193.986305 102.354116,192.310522 104.474527,188.958905 C105.739933,189.129906 106.372627,189.591602 106.372627,190.344005 Z M136.984071,174.184505 C136.984071,175.757713 136.650624,178.536435 135.983721,182.520755 C135.316818,186.505075 134.983371,189.403496 134.983371,191.216105 C134.983371,193.028714 135.205669,194.336851 135.650271,195.140555 C136.094873,195.94426 136.847266,196.636803 137.907471,197.218206 C137.462869,197.252406 136.830175,197.269506 136.009371,197.269506 C133.683759,197.269506 132.033626,196.83346 131.058921,195.961356 C130.084216,195.089251 129.596871,193.524617 129.596871,191.267405 C129.596871,190.001999 129.938867,187.445574 130.622871,183.598055 C131.306874,179.750536 131.648871,176.920514 131.648871,175.107905 C131.648871,172.850693 130.964878,171.722105 129.596871,171.722105 C127.40806,171.722105 125.142332,173.654385 122.79962,177.519005 C120.456909,181.383624 119.28557,186.034778 119.28557,191.472605 C119.28557,193.627216 119.388169,195.303 119.59337,196.500006 C118.704166,196.568406 118.174071,196.602606 118.00307,196.602606 C114.993455,196.602606 113.48867,195.13202 113.48867,192.190805 C113.48867,191.506802 113.847766,188.873428 114.56597,184.290605 C115.284174,179.707782 115.64327,176.056968 115.64327,173.338055 C115.64327,170.619141 115.352573,168.114016 114.77117,165.822604 C116.78898,166.609208 118.199716,167.729247 119.00342,169.182754 C119.807124,170.636262 120.20897,172.294945 120.20897,174.158855 C120.20897,176.022764 120.003772,178.185893 119.59337,180.648305 C120.721976,176.783685 122.491808,173.526168 124.90292,170.875655 C127.314033,168.225141 129.56266,166.899904 131.648871,166.899904 C135.205689,166.899904 136.984071,169.32808 136.984071,174.184505 Z M194.564659,155.357404 C196.479869,155.528405 197.847855,156.118349 198.668659,157.127254 C199.489463,158.136159 199.899859,159.521245 199.899859,161.282554 C199.899859,163.043863 199.335565,167.789066 198.206959,175.518305 C197.078353,183.247544 196.514059,188.65964 196.514059,191.754755 C196.514059,194.849871 196.753457,196.9617 197.232259,198.090306 C194.975048,197.337902 193.410413,196.329012 192.538309,195.063605 C191.666204,193.798199 191.230159,192.293414 191.230159,190.549205 C191.230159,188.804997 191.614905,185.128533 192.384409,179.519705 C193.153913,173.910877 193.658358,169.635919 193.897759,166.694704 C192.495552,169.396518 190.161425,173.22688 186.895309,178.185905 C183.629192,183.14493 181.739661,186.034801 181.226658,186.855605 C180.405854,187.334408 179.550863,187.573805 178.661658,187.573805 C177.05425,187.573805 176.147959,187.283108 175.942758,186.701705 C175.566556,185.7441 174.976612,184.213666 174.172908,182.110355 C173.369204,180.007044 172.710861,178.288511 172.197858,176.954705 C170.69305,173.192686 169.342164,170.029217 168.145158,167.464204 C168.110958,167.703606 167.692012,170.995323 166.888308,177.339455 C166.084604,183.683587 165.682758,188.736586 165.682758,192.498605 C165.682758,193.558811 165.751157,194.978097 165.887958,196.756506 C162.33114,196.756506 160.552758,195.679216 160.552758,193.524605 C160.552758,193.216804 161.211101,188.5742 162.527808,179.596655 C163.844514,170.61911 164.502858,164.369122 164.502858,160.846504 L164.502858,160.590004 C163.511053,158.982596 162.467963,157.665909 161.373558,156.639904 C162.194362,155.750699 163.203252,155.306104 164.400258,155.306104 C166.725869,155.306104 168.598301,156.614241 170.017608,159.230554 C171.436915,161.846867 174.591834,169.60164 179.482458,182.495105 C179.585059,182.700306 179.653458,182.854204 179.687658,182.956805 C179.99546,182.478003 180.833352,181.246815 182.201358,179.263205 C183.569365,177.279595 184.603905,175.74916 185.305009,174.671855 C186.006112,173.594549 186.972252,172.055565 188.203459,170.054854 C189.434665,168.054144 190.392255,166.335612 191.076259,164.899204 C192.991468,161.000385 194.154257,157.819816 194.564659,155.357404 Z M226.099503,166.797304 C229.040718,166.797304 230.511303,168.319189 230.511303,171.363005 C230.511303,171.910207 230.186406,174.312733 229.536603,178.570655 C228.8868,182.828576 228.561903,186.47939 228.561903,189.523205 C228.561903,192.567021 228.8868,195.251694 229.536603,197.577306 C227.450393,196.756501 226.005457,195.593713 225.201753,194.088905 C224.398049,192.584098 223.996203,190.720216 223.996203,188.497205 C223.996203,187.642201 224.184301,185.70992 224.560503,182.700305 C223.534498,186.599125 221.944214,189.873742 219.789603,192.524255 C217.634992,195.174769 215.634312,196.500006 213.787502,196.500006 C209.888683,196.500006 207.939302,193.661434 207.939302,187.984205 C207.939302,186.103196 208.221449,183.478372 208.785752,180.109655 C209.350055,176.740938 209.632202,174.184513 209.632202,172.440305 C209.632202,170.696096 209.392805,168.934813 208.914002,167.156404 C211.102813,167.156404 212.744397,167.532601 213.838802,168.285004 C214.933208,169.037408 215.480403,170.490894 215.480403,172.645505 C215.480403,173.80831 215.121306,176.202287 214.403103,179.827505 C213.684899,183.452723 213.325802,186.137396 213.325802,187.881605 C213.325802,190.412418 214.112395,191.677805 215.685603,191.677805 C216.985209,191.677805 218.344646,190.660365 219.763953,188.625455 C221.18326,186.590545 222.371698,183.948621 223.329303,180.699605 C224.286908,177.450589 224.765703,174.235821 224.765703,171.055205 C224.765703,169.618797 224.663104,168.233711 224.457903,166.899904 C225.210307,166.831504 225.757501,166.797304 226.099503,166.797304 Z M248.400347,169.413604 C247.271741,169.413604 246.254301,169.772701 245.347997,170.490905 C244.441692,171.209108 243.988547,172.192348 243.988547,173.440655 C243.988547,174.688961 244.407492,175.860299 245.245397,176.954705 C246.083301,178.04911 247.100741,179.023801 248.297747,179.878805 C249.494753,180.733809 250.708841,181.605901 251.940047,182.495105 C254.812861,184.615516 256.249247,186.889793 256.249247,189.318005 C256.249247,191.746217 255.274557,193.721248 253.325147,195.243155 C251.375737,196.765063 248.887712,197.526006 245.860997,197.526006 C242.834281,197.526006 240.491605,196.927512 238.832896,195.730506 C237.174188,194.533499 236.344846,193.122764 236.344846,191.498255 C236.344846,189.873747 236.755242,188.59981 237.576046,187.676405 C238.39685,186.753001 239.388641,186.291305 240.551446,186.291305 C241.167049,186.291305 241.748444,186.428104 242.295646,186.701705 C241.543243,187.65931 241.167046,188.787899 241.167046,190.087505 C241.167046,191.387112 241.568892,192.481501 242.372596,193.370705 C243.1763,194.25991 244.287789,194.704505 245.707097,194.704505 C247.126404,194.704505 248.331942,194.336859 249.323747,193.601555 C250.315552,192.866252 250.811447,191.934311 250.811447,190.805705 C250.811447,189.6771 250.52075,188.68531 249.939347,187.830305 C249.357944,186.975301 248.631201,186.240008 247.759097,185.624405 C246.886992,185.008802 245.937952,184.324809 244.911947,183.572405 C243.885941,182.820001 242.936901,182.076159 242.064796,181.340855 C241.192692,180.605551 240.465949,179.68216 239.884546,178.570655 C239.303143,177.459149 239.012446,176.236511 239.012446,174.902705 C239.012446,172.474492 239.935837,170.482362 241.782646,168.926254 C243.629456,167.370147 245.955033,166.592104 248.759447,166.592104 C251.563861,166.592104 253.61584,167.173499 254.915447,168.336304 C256.215053,169.49911 256.864847,170.807247 256.864847,172.260755 C256.864847,173.714262 256.505751,174.91125 255.787547,175.851755 C255.069343,176.792259 254.145953,177.262505 253.017347,177.262505 C252.470144,177.262505 251.83745,177.108606 251.119247,176.800805 C252.008451,175.706399 252.453047,174.526511 252.453047,173.261105 C252.453047,171.995698 252.068301,171.038108 251.298797,170.388305 C250.529293,169.738501 249.563153,169.413604 248.400347,169.413604 Z M269.05959,180.648305 C270.188196,176.783685 271.923829,173.526168 274.266541,170.875655 C276.609252,168.225141 278.80658,166.899904 280.858591,166.899904 C282.910601,166.899904 284.364087,167.524048 285.219091,168.772354 C286.074095,170.020661 286.501591,171.713544 286.501591,173.851055 C286.501591,175.988565 286.168144,178.989586 285.501241,182.854205 C284.834338,186.718824 284.500891,189.531746 284.500891,191.293055 C284.500891,193.054364 284.723189,194.336851 285.167791,195.140555 C285.612393,195.94426 286.364786,196.636803 287.424991,197.218206 C286.980389,197.252406 286.347695,197.269506 285.526891,197.269506 C283.33808,197.269506 281.722146,196.81636 280.679041,195.910056 C279.635936,195.003751 279.114391,193.456216 279.114391,191.267405 C279.114391,190.001999 279.456387,187.445574 280.140391,183.598055 C280.824394,179.750536 281.166391,176.920514 281.166391,175.107905 C281.166391,172.850693 280.379799,171.722105 278.806591,171.722105 C277.883186,171.722105 276.857196,172.20945 275.728591,173.184155 C274.599985,174.15886 273.514146,175.475546 272.47104,177.134255 C271.427935,178.792963 270.555844,180.896242 269.85474,183.444155 C269.153637,185.992068 268.80309,188.505743 268.80309,190.985255 C268.80309,193.464768 268.905689,195.303 269.11089,196.500006 C268.290086,196.568406 267.828391,196.602606 267.72579,196.602606 C266.118382,196.602606 264.929944,196.260609 264.16044,195.576606 C263.390936,194.892602 263.00619,193.823863 263.00619,192.370355 C263.00619,190.916848 263.313987,188.121026 263.92959,183.982805 C265.742199,171.260341 266.64849,161.598937 266.64849,154.998304 C266.64849,152.022889 266.443292,150.022209 266.03289,148.996204 C268.0165,149.714407 269.410136,150.774597 270.21384,152.176804 C271.017544,153.579011 271.41939,155.511292 271.41939,157.973704 C271.41939,159.683713 271.085944,163.274677 270.41904,168.746704 C269.752137,174.218732 269.298992,178.185893 269.05959,180.648305 Z M300.645734,179.827505 C301.876941,175.381482 303.356076,172.106865 305.083185,170.003554 C306.810293,167.900244 308.417677,166.848604 309.905385,166.848604 C311.393092,166.848604 312.513131,167.404349 313.265535,168.515854 C314.017939,169.62736 314.394135,171.038096 314.394135,172.748105 C314.394135,174.458113 313.949539,175.937248 313.060335,177.185555 C312.17113,178.433861 310.871543,179.058005 309.161535,179.058005 C308.614332,179.058005 308.186836,179.023805 307.879035,178.955405 C309.041841,177.279596 309.623235,175.569613 309.623235,173.825405 C309.623235,172.594198 309.12734,171.978605 308.135535,171.978605 C307.348931,171.978605 306.511039,172.4403 305.621835,173.363705 C304.73263,174.287109 303.877639,175.569597 303.056834,177.211205 C302.23603,178.852813 301.552037,180.990292 301.004834,183.623705 C300.457632,186.257118 300.184034,189.09569 300.184034,192.139505 C300.184034,192.481507 300.269534,193.934993 300.440534,196.500006 C299.55133,196.568406 299.038335,196.602606 298.901534,196.602606 C295.891919,196.602606 294.387134,195.13202 294.387134,192.190805 C294.387134,191.506802 294.746231,188.873428 295.464434,184.290605 C296.182638,179.707782 296.541734,176.056968 296.541734,173.338055 C296.541734,170.619141 296.251037,168.114016 295.669634,165.822604 C297.687444,166.609208 299.09818,167.729247 299.901884,169.182754 C300.705588,170.636262 301.107434,172.329145 301.107434,174.261455 C301.107434,176.193764 300.953536,178.049096 300.645734,179.827505 Z M336.335879,179.673605 C336.335879,176.321988 335.916933,173.919462 335.079029,172.465955 C334.241124,171.012447 333.044136,170.285705 331.488028,170.285705 C329.931921,170.285705 328.367286,171.046647 326.794078,172.568555 C325.22087,174.090462 323.981133,175.971444 323.074828,178.211555 C322.168524,180.451666 321.715378,182.777243 321.715378,185.188355 C321.715378,187.599467 322.177073,189.685646 323.100478,191.446955 C324.023883,193.208264 325.426069,194.088905 327.307078,194.088905 C329.974692,194.088905 332.14637,192.515721 333.822179,189.369305 C335.497987,186.222889 336.335879,182.991022 336.335879,179.673605 Z M321.458878,177.672905 C322.758485,173.979286 324.511217,171.286063 326.717128,169.593154 C328.923039,167.900246 331.163117,167.053804 333.437429,167.053804 C335.71174,167.053804 337.601271,168.054144 339.106079,170.054854 C340.610886,172.055565 341.363279,174.765888 341.363279,178.185905 C341.363279,181.947924 340.645086,185.436289 339.208679,188.651105 C337.601271,192.207923 335.275694,194.687398 332.231878,196.089606 C330.59027,196.876209 328.777688,197.269506 326.794078,197.269506 C324.023864,197.269506 321.595688,196.115267 319.509478,193.806755 C317.423267,191.498244 316.380178,188.197977 316.380178,183.905855 C316.380178,179.613733 317.303569,175.89452 319.150378,172.748105 C320.997187,169.601689 323.510862,167.412911 326.691478,166.181704 C327.375482,166.181704 327.717478,166.523701 327.717478,167.207704 C324.331661,169.430716 322.245482,172.919081 321.458878,177.672905 Z M367.255123,179.673605 C367.255123,176.321988 366.836177,173.919462 365.998273,172.465955 C365.160368,171.012447 363.96338,170.285705 362.407272,170.285705 C360.851165,170.285705 359.28653,171.046647 357.713322,172.568555 C356.140114,174.090462 354.900377,175.971444 353.994072,178.211555 C353.087768,180.451666 352.634622,182.777243 352.634622,185.188355 C352.634622,187.599467 353.096318,189.685646 354.019722,191.446955 C354.943127,193.208264 356.345313,194.088905 358.226322,194.088905 C360.893936,194.088905 363.065614,192.515721 364.741423,189.369305 C366.417231,186.222889 367.255123,182.991022 367.255123,179.673605 Z M352.378122,177.672905 C353.677729,173.979286 355.430461,171.286063 357.636372,169.593154 C359.842283,167.900246 362.082361,167.053804 364.356673,167.053804 C366.630984,167.053804 368.520515,168.054144 370.025323,170.054854 C371.53013,172.055565 372.282523,174.765888 372.282523,178.185905 C372.282523,181.947924 371.56433,185.436289 370.127923,188.651105 C368.520515,192.207923 366.194938,194.687398 363.151123,196.089606 C361.509514,196.876209 359.696932,197.269506 357.713322,197.269506 C354.943108,197.269506 352.514933,196.115267 350.428722,193.806755 C348.342512,191.498244 347.299422,188.197977 347.299422,183.905855 C347.299422,179.613733 348.222813,175.89452 350.069622,172.748105 C351.916431,169.601689 354.430106,167.412911 357.610722,166.181704 C358.294726,166.181704 358.636722,166.523701 358.636722,167.207704 C355.250905,169.430716 353.164726,172.919081 352.378122,177.672905 Z M403.047867,177.057305 C402.158662,178.664713 401.40627,180.716692 400.790667,183.213305 C400.175064,185.709918 399.867267,188.069694 399.867267,190.292705 C399.867267,192.515716 399.969866,194.584796 400.175067,196.500006 C399.285862,196.568406 398.755768,196.602606 398.584767,196.602606 C395.609352,196.602606 394.121667,195.14912 394.121667,192.242105 C394.121667,191.1819 394.489313,188.548526 395.224617,184.341905 C395.95992,180.135284 396.327567,176.980365 396.327567,174.877055 C396.327567,172.773744 395.540974,171.722105 393.967767,171.722105 C392.018357,171.722105 390.034777,173.603086 388.016966,177.365105 C385.999156,181.127124 384.990266,185.692778 384.990266,191.062205 C384.990266,192.772214 385.092865,194.584796 385.298066,196.500006 C384.408862,196.568406 383.878767,196.602606 383.707766,196.602606 C380.732351,196.602606 379.244666,195.14912 379.244666,192.242105 C379.244666,191.865903 379.595212,189.318029 380.296316,184.598405 C380.99742,179.878781 381.347966,176.142468 381.347966,173.389355 C381.347966,170.636241 381.057269,168.114016 380.475866,165.822604 C382.527876,166.609208 383.955712,167.737797 384.759416,169.208404 C385.56312,170.679012 385.964966,172.491594 385.964966,174.646205 C385.964966,175.74061 385.845267,177.125696 385.605866,178.801505 C386.768672,175.381488 388.376056,172.542916 390.428066,170.285705 C392.480077,168.028493 394.361058,166.899904 396.071067,166.899904 C399.901486,166.899904 401.816667,169.858175 401.816667,175.774805 C403.082073,173.038791 404.544109,170.875662 406.202817,169.285354 C407.861525,167.695046 409.40906,166.899904 410.845467,166.899904 C412.931678,166.899904 414.402263,167.524048 415.257267,168.772354 C416.112272,170.020661 416.539767,171.713544 416.539767,173.851055 C416.539767,175.988565 416.206321,178.989586 415.539417,182.854205 C414.872514,186.718824 414.539067,189.531746 414.539067,191.293055 C414.539067,193.054364 414.761365,194.336851 415.205967,195.140555 C415.65057,195.94426 416.402962,196.636803 417.463168,197.218206 C417.018565,197.252406 416.385872,197.269506 415.565067,197.269506 C413.376256,197.269506 411.760322,196.81636 410.717217,195.910056 C409.674112,195.003751 409.152567,193.456216 409.152567,191.267405 C409.152567,190.001999 409.494564,187.445574 410.178567,183.598055 C410.862571,179.750536 411.204567,176.920514 411.204567,175.107905 C411.204567,172.850693 410.417975,171.722105 408.844767,171.722105 C407.955563,171.722105 406.997972,172.2009 405.971967,173.158505 C404.945962,174.116109 403.971272,175.415696 403.047867,177.057305 Z M429.965711,177.262505 L434.634011,177.416405 C437.472625,177.416405 439.439106,176.86921 440.533511,175.774805 C440.738712,176.356208 440.841311,177.194099 440.841311,178.288505 C440.841311,179.38291 440.533514,180.3747 439.917911,181.263905 C439.302308,182.153109 438.344718,182.597705 437.045111,182.597705 C433.351492,182.597705 430.658269,182.725954 428.965361,182.982455 C427.272452,183.238956 425.639419,183.8289 424.066211,184.752305 C423.92941,184.205102 423.861011,183.538209 423.861011,182.751605 C423.861011,180.528594 424.374005,179.058008 425.400011,178.339805 C426.426016,177.621601 427.947901,177.262505 429.965711,177.262505 Z M481.815356,155.357404 C483.730565,155.528405 485.098552,156.118349 485.919356,157.127254 C486.74016,158.136159 487.150556,159.521245 487.150556,161.282554 C487.150556,163.043863 486.586262,167.789066 485.457656,175.518305 C484.32905,183.247544 483.764756,188.65964 483.764756,191.754755 C483.764756,194.849871 484.004153,196.9617 484.482956,198.090306 C482.225744,197.337902 480.66111,196.329012 479.789006,195.063605 C478.916901,193.798199 478.480856,192.293414 478.480856,190.549205 C478.480856,188.804997 478.865602,185.128533 479.635106,179.519705 C480.404609,173.910877 480.909054,169.635919 481.148456,166.694704 C479.746249,169.396518 477.412122,173.22688 474.146005,178.185905 C470.879889,183.14493 468.990358,186.034801 468.477355,186.855605 C467.656551,187.334408 466.80156,187.573805 465.912355,187.573805 C464.304947,187.573805 463.398656,187.283108 463.193455,186.701705 C462.817253,185.7441 462.227309,184.213666 461.423605,182.110355 C460.619901,180.007044 459.961557,178.288511 459.448555,176.954705 C457.943747,173.192686 456.592861,170.029217 455.395855,167.464204 C455.361654,167.703606 454.942709,170.995323 454.139005,177.339455 C453.335301,183.683587 452.933455,188.736586 452.933455,192.498605 C452.933455,193.558811 453.001854,194.978097 453.138655,196.756506 C449.581837,196.756506 447.803454,195.679216 447.803454,193.524605 C447.803454,193.216804 448.461798,188.5742 449.778504,179.596655 C451.095211,170.61911 451.753555,164.369122 451.753555,160.846504 L451.753555,160.590004 C450.76175,158.982596 449.71866,157.665909 448.624254,156.639904 C449.445059,155.750699 450.453948,155.306104 451.650955,155.306104 C453.976566,155.306104 455.848998,156.614241 457.268305,159.230554 C458.687612,161.846867 461.84253,169.60164 466.733155,182.495105 C466.835756,182.700306 466.904155,182.854204 466.938355,182.956805 C467.246157,182.478003 468.084048,181.246815 469.452055,179.263205 C470.820062,177.279595 471.854602,175.74916 472.555705,174.671855 C473.256809,173.594549 474.222949,172.055565 475.454155,170.054854 C476.685362,168.054144 477.642952,166.335612 478.326956,164.899204 C480.242165,161.000385 481.404954,157.819816 481.815356,155.357404 Z M501.243399,197.269506 C499.293989,196.585502 497.934553,195.533863 497.165049,194.114555 C496.395545,192.695248 496.010799,190.976715 496.010799,188.958905 C496.010799,186.941095 496.284396,184.051224 496.831599,180.289205 C497.378802,176.527186 497.652399,173.603115 497.652399,171.516905 C497.652399,169.430694 497.5498,167.82331 497.344599,166.694704 C497.960202,166.626304 498.456097,166.592104 498.832299,166.592104 C500.371307,166.592104 501.482796,166.934101 502.166799,167.618104 C502.850803,168.302108 503.192799,169.430697 503.192799,171.003905 C503.192799,171.516907 502.773854,174.21013 501.935949,179.083655 C501.098045,183.957179 500.670549,187.975639 500.653449,191.139155 C500.636349,194.302671 500.832997,196.346101 501.243399,197.269506 Z M502.012899,161.513404 C499.140085,161.513404 497.703699,160.538714 497.703699,158.589304 C497.703699,157.905301 497.960197,156.94771 498.473199,155.716504 C499.225603,155.579703 499.875397,155.511304 500.422599,155.511304 C503.295414,155.511304 504.731799,156.485994 504.731799,158.435404 C504.731799,159.119407 504.475302,160.076998 503.962299,161.308204 C503.209896,161.445005 502.560102,161.513404 502.012899,161.513404 Z M519.388943,171.978605 C518.055136,173.551812 517.054796,175.492643 516.387893,177.801155 C515.720989,180.109666 515.387543,182.580592 515.387543,185.214005 C515.387543,187.847418 515.832138,189.967797 516.721343,191.575205 C517.610547,193.182613 518.798985,193.986305 520.286693,193.986305 C521.7744,193.986305 523.236436,193.54171 524.672843,192.652505 C526.10925,191.763301 527.323338,190.532113 528.315143,188.958905 C529.58055,189.129906 530.213243,189.591602 530.213243,190.344005 C529.289839,192.054014 528.1356,193.4562 526.750493,194.550605 C525.365386,195.645011 524.074349,196.371754 522.877343,196.730856 C521.680337,197.089957 520.466249,197.269506 519.235043,197.269506 C516.60163,197.269506 514.378652,196.234966 512.566043,194.165855 C510.753433,192.096745 509.847142,189.095725 509.847142,185.162705 C509.847142,180.16948 511.198029,175.877423 513.899843,172.286405 C516.601656,168.695386 520.19262,166.899904 524.672843,166.899904 C527.135255,166.899904 528.999137,167.541148 530.264543,168.823654 C531.52995,170.106161 532.162643,171.593846 532.162643,173.286755 C532.162643,174.979663 531.692398,176.424599 530.751893,177.621605 C529.811389,178.818611 528.605851,179.417105 527.135243,179.417105 C526.211838,179.417105 525.425246,179.263206 524.775443,178.955405 C525.322646,178.339802 525.792891,177.47626 526.186193,176.364755 C526.579495,175.253249 526.776143,174.16741 526.776143,173.107205 C526.776143,170.747393 525.801453,169.567504 523.852043,169.567504 C522.210435,169.567504 520.72275,170.371196 519.388943,171.978605 Z M544.357387,179.827505 C545.588593,175.381482 547.067728,172.106865 548.794837,170.003554 C550.521946,167.900244 552.12933,166.848604 553.617037,166.848604 C555.104745,166.848604 556.224783,167.404349 556.977187,168.515854 C557.729591,169.62736 558.105787,171.038096 558.105787,172.748105 C558.105787,174.458113 557.661192,175.937248 556.771987,177.185555 C555.882783,178.433861 554.583196,179.058005 552.873187,179.058005 C552.325984,179.058005 551.898488,179.023805 551.590687,178.955405 C552.753493,177.279596 553.334887,175.569613 553.334887,173.825405 C553.334887,172.594198 552.838992,171.978605 551.847187,171.978605 C551.060583,171.978605 550.222691,172.4403 549.333487,173.363705 C548.444282,174.287109 547.589291,175.569597 546.768487,177.211205 C545.947683,178.852813 545.263689,180.990292 544.716487,183.623705 C544.169284,186.257118 543.895687,189.09569 543.895687,192.139505 C543.895687,192.481507 543.981186,193.934993 544.152187,196.500006 C543.262982,196.568406 542.749987,196.602606 542.613187,196.602606 C539.603571,196.602606 538.098786,195.13202 538.098786,192.190805 C538.098786,191.506802 538.457883,188.873428 539.176086,184.290605 C539.89429,179.707782 540.253386,176.056968 540.253386,173.338055 C540.253386,170.619141 539.962689,168.114016 539.381286,165.822604 C541.399097,166.609208 542.809833,167.729247 543.613537,169.182754 C544.417241,170.636262 544.819087,172.329145 544.819087,174.261455 C544.819087,176.193764 544.665188,178.049096 544.357387,179.827505 Z M580.047531,179.673605 C580.047531,176.321988 579.628585,173.919462 578.790681,172.465955 C577.952777,171.012447 576.755789,170.285705 575.199681,170.285705 C573.643573,170.285705 572.078938,171.046647 570.505731,172.568555 C568.932523,174.090462 567.692785,175.971444 566.78648,178.211555 C565.880176,180.451666 565.42703,182.777243 565.42703,185.188355 C565.42703,187.599467 565.888726,189.685646 566.81213,191.446955 C567.735535,193.208264 569.137721,194.088905 571.018731,194.088905 C573.686344,194.088905 575.858022,192.515721 577.533831,189.369305 C579.209639,186.222889 580.047531,182.991022 580.047531,179.673605 Z M565.17053,177.672905 C566.470137,173.979286 568.222869,171.286063 570.428781,169.593154 C572.634692,167.900246 574.874769,167.053804 577.149081,167.053804 C579.423392,167.053804 581.312923,168.054144 582.817731,170.054854 C584.322539,172.055565 585.074931,174.765888 585.074931,178.185905 C585.074931,181.947924 584.356738,185.436289 582.920331,188.651105 C581.312923,192.207923 578.987346,194.687398 575.943531,196.089606 C574.301922,196.876209 572.489341,197.269506 570.505731,197.269506 C567.735517,197.269506 565.307341,196.115267 563.22113,193.806755 C561.13492,191.498244 560.09183,188.197977 560.09183,183.905855 C560.09183,179.613733 561.015221,175.89452 562.86203,172.748105 C564.70884,169.601689 567.222514,167.412911 570.403131,166.181704 C571.087134,166.181704 571.429131,166.523701 571.429131,167.207704 C568.043313,169.430716 565.957134,172.919081 565.17053,177.672905 Z M597.577474,177.262505 L602.245775,177.416405 C605.084389,177.416405 607.050869,176.86921 608.145275,175.774805 C608.350476,176.356208 608.453075,177.194099 608.453075,178.288505 C608.453075,179.38291 608.145278,180.3747 607.529675,181.263905 C606.914072,182.153109 605.956481,182.597705 604.656875,182.597705 C600.963256,182.597705 598.270033,182.725954 596.577124,182.982455 C594.884216,183.238956 593.251182,183.8289 591.677974,184.752305 C591.541173,184.205102 591.472774,183.538209 591.472774,182.751605 C591.472774,180.528594 591.985769,179.058008 593.011774,178.339805 C594.037779,177.621601 595.559664,177.262505 597.577474,177.262505 Z M632.036419,179.058005 L627.470718,179.006705 C625.79491,179.006705 624.512423,179.040905 623.623218,179.109305 C623.076015,184.03413 622.802418,187.99274 622.802418,190.985255 C622.802418,193.97777 622.905017,196.0725 623.110218,197.269506 C622.221014,197.337906 621.742219,197.372106 621.673818,197.372106 C620.10061,197.372106 618.929272,197.030109 618.159768,196.346106 C617.390264,195.662102 617.005518,194.499314 617.005518,192.857705 C617.005518,191.216097 617.501413,186.88984 618.493218,179.878805 C617.535613,180.118206 616.714821,180.374704 616.030818,180.648305 C615.962418,180.032702 615.928218,179.536807 615.928218,179.160605 C615.928218,177.074394 616.988407,175.774807 619.108818,175.261805 C619.895422,169.516176 620.322918,164.950521 620.391318,161.564704 C619.057511,161.564704 618.15122,161.385156 617.672418,161.026054 C617.193616,160.666952 616.954218,159.965859 616.954218,158.922754 C616.954218,157.879649 617.091017,156.981908 617.364618,156.229504 C620.887236,156.708306 624.717598,156.947704 628.855818,156.947704 C632.994039,156.947704 636.9441,156.571508 640.706119,155.819104 C640.261517,158.589318 638.329236,160.248001 634.909219,160.795204 C632.891409,161.137206 629.830539,161.376603 625.726518,161.513404 C625.726518,163.120812 625.196424,167.635167 624.136218,175.056605 C626.256629,175.125005 627.795614,175.159205 628.753218,175.159205 C631.762834,175.159205 633.900312,174.66331 635.165719,173.671505 C635.234119,174.218707 635.268319,174.663303 635.268319,175.005305 C635.268319,177.707118 634.191029,179.058005 632.036419,179.058005 Z M647.309162,176.441705 C646.317357,178.151713 645.556415,179.904446 645.026312,181.699955 C644.496209,183.495464 644.231162,185.213997 644.231162,186.855605 C644.231162,188.497213 644.598808,189.89085 645.334112,191.036555 C646.069416,192.182261 647.121055,192.755105 648.489062,192.755105 C650.404272,192.755105 652.199754,191.703466 653.875562,189.600155 C655.551371,187.496845 656.842408,184.94897 657.748712,181.956455 C658.655017,178.96394 659.108162,176.193767 659.108162,173.645855 C659.108162,171.097942 659.005564,169.003213 658.800362,167.361604 C659.621167,167.293204 660.134162,167.259004 660.339363,167.259004 C663.246377,167.259004 664.699863,168.74669 664.699863,171.722105 C664.699863,172.371908 664.289467,175.013832 663.468663,179.647955 C662.647859,184.282078 662.237463,187.992741 662.237463,190.780055 C662.237463,193.567369 662.767557,196.038295 663.827763,198.192906 C661.673152,197.748303 660.108517,196.799263 659.133812,195.345755 C658.159108,193.892248 657.671762,191.797519 657.671762,189.061505 C657.671762,188.582703 657.740162,187.659312 657.876962,186.291305 C656.953558,189.540322 655.329074,192.156595 653.003462,194.140205 C650.677851,196.123815 648.395023,197.115606 646.154912,197.115606 C643.914801,197.115606 642.110769,196.269164 640.742762,194.576255 C639.374755,192.883347 638.690762,190.54067 638.690762,187.548155 C638.690762,184.55564 639.246506,181.631569 640.358012,178.775855 C641.469517,175.92014 643.145301,173.449215 645.385412,171.363005 C647.625523,169.276794 650.130648,168.233704 652.900862,168.233704 C654.097868,168.233704 655.414555,168.473102 656.850962,168.951904 C654.833152,169.464907 652.986371,170.405398 651.310562,171.773405 C649.634754,173.141411 648.300967,174.697496 647.309162,176.441705 Z M678.433606,179.827505 C679.664812,175.381482 681.143948,172.106865 682.871056,170.003554 C684.598165,167.900244 686.205549,166.848604 687.693256,166.848604 C689.180964,166.848604 690.301003,167.404349 691.053407,168.515854 C691.80581,169.62736 692.182007,171.038096 692.182007,172.748105 C692.182007,174.458113 691.737411,175.937248 690.848207,177.185555 C689.959002,178.433861 688.659415,179.058005 686.949406,179.058005 C686.402204,179.058005 685.974708,179.023805 685.666906,178.955405 C686.829712,177.279596 687.411106,175.569613 687.411106,173.825405 C687.411106,172.594198 686.915211,171.978605 685.923406,171.978605 C685.136802,171.978605 684.298911,172.4403 683.409706,173.363705 C682.520502,174.287109 681.66551,175.569597 680.844706,177.211205 C680.023902,178.852813 679.339909,180.990292 678.792706,183.623705 C678.245503,186.257118 677.971906,189.09569 677.971906,192.139505 C677.971906,192.481507 678.057405,193.934993 678.228406,196.500006 C677.339202,196.568406 676.826207,196.602606 676.689406,196.602606 C673.679791,196.602606 672.175006,195.13202 672.175006,192.190805 C672.175006,191.506802 672.534102,188.873428 673.252306,184.290605 C673.970509,179.707782 674.329606,176.056968 674.329606,173.338055 C674.329606,170.619141 674.038909,168.114016 673.457506,165.822604 C675.475316,166.609208 676.886052,167.729247 677.689756,169.182754 C678.49346,170.636262 678.895306,172.329145 678.895306,174.261455 C678.895306,176.193764 678.741408,178.049096 678.433606,179.827505 Z M718.997251,177.057305 C718.108046,178.664713 717.355654,180.716692 716.74005,183.213305 C716.124447,185.709918 715.81665,188.069694 715.81665,190.292705 C715.81665,192.515716 715.919249,194.584796 716.12445,196.500006 C715.235246,196.568406 714.705151,196.602606 714.53415,196.602606 C711.558735,196.602606 710.07105,195.14912 710.07105,192.242105 C710.07105,191.1819 710.438696,188.548526 711.174,184.341905 C711.909304,180.135284 712.27695,176.980365 712.27695,174.877055 C712.27695,172.773744 711.490358,171.722105 709.91715,171.722105 C707.96774,171.722105 705.98416,173.603086 703.96635,177.365105 C701.94854,181.127124 700.93965,185.692778 700.93965,191.062205 C700.93965,192.772214 701.042249,194.584796 701.24745,196.500006 C700.358245,196.568406 699.828151,196.602606 699.65715,196.602606 C696.681735,196.602606 695.19405,195.14912 695.19405,192.242105 C695.19405,191.865903 695.544596,189.318029 696.2457,184.598405 C696.946803,179.878781 697.29735,176.142468 697.29735,173.389355 C697.29735,170.636241 697.006653,168.114016 696.42525,165.822604 C698.47726,166.609208 699.905096,167.737797 700.7088,169.208404 C701.512504,170.679012 701.91435,172.491594 701.91435,174.646205 C701.91435,175.74061 701.794651,177.125696 701.55525,178.801505 C702.718056,175.381488 704.32544,172.542916 706.37745,170.285705 C708.42946,168.028493 710.310442,166.899904 712.02045,166.899904 C715.85087,166.899904 717.76605,169.858175 717.76605,175.774805 C719.031457,173.038791 720.493492,170.875662 722.152201,169.285354 C723.810909,167.695046 725.358444,166.899904 726.794851,166.899904 C728.881061,166.899904 730.351647,167.524048 731.206651,168.772354 C732.061655,170.020661 732.489151,171.713544 732.489151,173.851055 C732.489151,175.988565 732.155704,178.989586 731.488801,182.854205 C730.821898,186.718824 730.488451,189.531746 730.488451,191.293055 C730.488451,193.054364 730.710749,194.336851 731.155351,195.140555 C731.599953,195.94426 732.352346,196.636803 733.412551,197.218206 C732.967949,197.252406 732.335255,197.269506 731.514451,197.269506 C729.32564,197.269506 727.709706,196.81636 726.666601,195.910056 C725.623496,195.003751 725.101951,193.456216 725.101951,191.267405 C725.101951,190.001999 725.443947,187.445574 726.127951,183.598055 C726.811954,179.750536 727.153951,176.920514 727.153951,175.107905 C727.153951,172.850693 726.367359,171.722105 724.794151,171.722105 C723.904946,171.722105 722.947356,172.2009 721.921351,173.158505 C720.895345,174.116109 719.920655,175.415696 718.997251,177.057305 Z" id="Open-Mushroom-Micro-" fill="#FFFFFF"></path>
                        <path d="M353.722592,22.5547146 C333.267767,22.5547146 327.906814,36.1196848 315.55625,36.5949264 C303.205685,37.070168 308.266236,49.3641428 350.611599,49.3641428 C359.338964,49.3641428 361.68346,47.8504905 382.398298,47.8504905 C403.908714,47.8504905 407.904345,34.4654159 394.507517,34.4654159 C377.617004,34.4654159 374.177417,22.5547146 353.722592,22.5547146 Z" id="Combined-Shape" fill="#FFFFFF"></path>
                        <path d="M38.984143,39.5000016 C48.9107654,39.5000016 52.0126678,51.1453056 66.275019,51.1453056 C80.5373701,51.1453056 75.2529064,65.8944493 66.275019,65.8944493 C41.406271,65.8944493 38.0844526,59.3353267 27.7598822,60.6151555 C17.4353117,61.8949843 7.55963559,64.7745991 2.62179754,65.8944493 C-2.31604051,67.0142995 1.22467601,53.1361076 10.7829538,53.1361076 C25.041982,53.1361076 29.0575206,39.5000016 38.984143,39.5000016 Z" id="Combined-Shape-Copy" fill="#FFFFFF"></path>
                        <path d="M89.0001215,5.52500026 C72.4841634,5.52500026 51.8930659,22.7015967 45.947321,22.7015967 C40.0015761,22.7015967 39.3409378,31.9505332 45.947321,31.9505332 C52.5537043,31.9505332 67.8596951,36.5750015 89.0001215,36.5750015 C110.140548,36.5750015 92.1920037,31.9505332 122.581367,31.9505332 C152.97073,31.9505332 105.51608,5.52500026 89.0001215,5.52500026 Z" id="Path-2" fill="#FFFFFF" transform="translate(86.879181, 21.050001) rotate(6.000000) translate(-86.879181, -21.050001) "></path>
                    </g>
                </g>
            </g>
        </g>
    </g>
</svg>